<svg xmlns="http://www.w3.org/2000/svg" width="255" height="200" viewBox="0 0 255 200">
    <defs>
        <clipPath id="mt35banioa">
            <path data-name="Rectangle 8639" style="fill:none" d="M0 0h224.816v186.797H0z"/>
        </clipPath>
        <clipPath id="9g1jirpcgb">
            <path data-name="Rectangle 8617" style="fill:none" d="M0 0h224.816v9.502H0z"/>
        </clipPath>
        <clipPath id="1qmhyynryc">
            <path data-name="Rectangle 8618" style="fill:none" d="M0 0h38.436v9.851H0z"/>
        </clipPath>
        <clipPath id="8xunxqahjd">
            <path data-name="Rectangle 8620" style="fill:none" d="M0 0h59.648v127.457H0z"/>
        </clipPath>
        <clipPath id="m7gcx5z0ue">
            <path data-name="Rectangle 8621" style="fill:none" d="M0 0h12.328v12.136H0z"/>
        </clipPath>
        <clipPath id="9lqkjzaqwf">
            <path data-name="Rectangle 8622" style="fill:none" d="M0 0h12.142v11.99H0z"/>
        </clipPath>
        <clipPath id="jq2osx9e7g">
            <path data-name="Rectangle 8623" style="fill:none" d="M0 0h15.423v19.884H0z"/>
        </clipPath>
        <clipPath id="gflf3jx1bh">
            <path data-name="Rectangle 8626" style="fill:none" d="M0 0h83.08v74.892H0z"/>
        </clipPath>
        <clipPath id="c7yetypmri">
            <path data-name="Rectangle 8627" style="fill:none" d="M0 0h31.347v56.812H0z"/>
        </clipPath>
        <clipPath id="b86zia4n7j">
            <path data-name="Rectangle 8632" style="fill:none" d="M0 0h21.235v37.486H0z"/>
        </clipPath>
    </defs>
    <g data-name="Group 61274">
        <g data-name="Group 61273" transform="translate(30.184 13.203)" style="clip-path:url(#mt35banioa)">
            <g data-name="Group 61272">
                <g data-name="Group 61271" style="clip-path:url(#mt35banioa)">
                    <path data-name="Path 66202" d="m150.974 1.026 3.064 6.209a1.842 1.842 0 0 0 1.386 1.007l6.852 1a1.84 1.84 0 0 1 1.02 3.139l-4.958 4.833a1.841 1.841 0 0 0-.529 1.629l1.171 6.824a1.841 1.841 0 0 1-2.671 1.94l-6.129-3.227a1.841 1.841 0 0 0-1.713 0l-6.128 3.22a1.841 1.841 0 0 1-2.671-1.94l1.171-6.824a1.841 1.841 0 0 0-.53-1.629l-4.958-4.833a1.841 1.841 0 0 1 1.02-3.139l6.852-1a1.841 1.841 0 0 0 1.386-1.007l3.064-6.209a1.841 1.841 0 0 1 3.3 0" transform="translate(-85.898)" style="fill:#bfbfbf"/>
                    <g data-name="Group 61246" style="mix-blend-mode:multiply;isolation:isolate;opacity:.6">
                        <g data-name="Group 61245">
                            <g data-name="Group 61244" style="clip-path:url(#9g1jirpcgb)" transform="translate(0 177.295)">
                                <path data-name="Path 66203" d="M224.816 493.512c0-2.624-50.328-4.751-112.408-4.751S0 490.887 0 493.512s50.328 4.751 112.408 4.751 112.408-2.127 112.408-4.751" transform="translate(0 -488.761)" style="fill:#ccc"/>
                            </g>
                        </g>
                    </g>
                    <path data-name="Path 66204" d="m445.864 62.006-38.437-.059s1.914-2.486 4.021-2.793c0 0 4.116-12.193 10.977-12.269 6.379-.071 8.923 7.516 8.923 7.516s2.96-3.4 5.781-1.837 4.413 6.015 4.413 6.015 3.172 1.716 4.322 3.428" transform="translate(-259.635 -29.877)" style="fill:#ccc"/>
                    <g data-name="Group 61249" style="opacity:.5">
                        <g data-name="Group 61248">
                            <g data-name="Group 61247" style="clip-path:url(#1qmhyynryc)" transform="translate(147.792 22.278)">
                                <path data-name="Path 66205" d="M441.541 67.839s-1.592-4.456-4.413-6.015a3.205 3.205 0 0 0-1.64-.407c10.374 9.85-26.221 8-26.221 8a10.508 10.508 0 0 0-1.841 1.787l38.436.059c-1.15-1.712-4.321-3.428-4.321-3.428" transform="translate(-407.426 -61.416)" style="fill:#b3b3b3"/>
                            </g>
                        </g>
                    </g>
                    <path data-name="Path 66206" d="m108.7 62.615 1.966 3.019a.957.957 0 0 0 .778.435l3.6.092a.957.957 0 0 1 .72 1.559l-2.264 2.8a.958.958 0 0 0-.173.874l1.025 3.453a.957.957 0 0 1-1.26 1.167l-3.365-1.287a.956.956 0 0 0-.885.106l-2.968 2.042a.958.958 0 0 1-1.5-.838l.184-3.6a.957.957 0 0 0-.374-.809l-2.86-2.191a.958.958 0 0 1 .334-1.685l3.478-.937a.958.958 0 0 0 .654-.605l1.2-3.4a.958.958 0 0 1 1.705-.2" transform="translate(-64.334 -39.624)" style="fill:#f5a81c"/>
                    <path data-name="Path 66207" d="m147.974 1.026 3.064 6.209a1.842 1.842 0 0 0 1.386 1.007l6.852 1a1.84 1.84 0 0 1 1.02 3.139l-4.958 4.833a1.841 1.841 0 0 0-.529 1.629l1.171 6.824a1.841 1.841 0 0 1-2.671 1.94l-6.129-3.227a1.841 1.841 0 0 0-1.713 0l-6.128 3.22a1.841 1.841 0 0 1-2.671-1.94l1.171-6.824a1.841 1.841 0 0 0-.53-1.629l-4.958-4.833a1.841 1.841 0 0 1 1.02-3.139l6.852-1a1.841 1.841 0 0 0 1.386-1.007l3.064-6.209a1.841 1.841 0 0 1 3.3 0" transform="translate(-83.986)" style="fill:#ccc"/>
                    <path data-name="Path 66208" d="M129.465 213.808C67.236 185.434 64.421 105.27 64.68 85.816a5.107 5.107 0 0 1 4.222-4.96c19.574-3.444 33.55-9.524 43.262-15.56a71.082 71.082 0 0 0 15.6-12.795 5.129 5.129 0 0 1 7.667 0 71.1 71.1 0 0 0 15.6 12.795c9.712 6.036 23.688 12.116 43.262 15.56a5.107 5.107 0 0 1 4.222 4.96c.259 19.454-2.556 99.618-64.785 127.993a5.143 5.143 0 0 1-4.264 0" transform="translate(-41.209 -32.36)" style="fill:#e29417"/>
                    <path data-name="Rectangle 8619" transform="translate(90.388 18.42)" style="fill:#e29417" d="M0 0h6.462v163.491H0z"/>
                    <path data-name="Path 66209" d="M147.28 213.808C85.051 185.434 82.236 105.27 82.5 85.816a5.107 5.107 0 0 1 4.222-4.96c19.574-3.444 33.55-9.524 43.262-15.56a71.083 71.083 0 0 0 15.6-12.795 5.129 5.129 0 0 1 7.667 0 71.1 71.1 0 0 0 15.6 12.795c9.712 6.036 23.688 12.116 43.262 15.56a5.107 5.107 0 0 1 4.222 4.96c.259 19.454-2.556 99.618-64.785 127.993a5.143 5.143 0 0 1-4.264 0" transform="translate(-52.562 -32.36)" style="fill:#f5a81c"/>
                    <g data-name="Group 61252" style="opacity:.1">
                        <g data-name="Group 61251">
                            <g data-name="Group 61250" style="clip-path:url(#8xunxqahjd)" transform="translate(53.544 24.615)">
                                <path data-name="Path 66210" d="M0 32.507c5.144 30.05 16.81 66.93 42.856 94.95 1.194-11.456 1.865-24.655-.226-31.634-2.515-8.391-8.016-29.422-12-44.864-.1-.378-2.207-9.684-3.364-14.789-.237-1.063-.48-2.137-.728-3.211l-.016-.069 20.639-2.721a4.763 4.763 0 0 0 2.522-.84 4.69 4.69 0 0 0 1.05-1.538A168.367 168.367 0 0 0 59.65 6.302a74.945 74.945 0 0 1-8.043-6.3 118.271 118.271 0 0 1-5.924 15.634 5.239 5.239 0 0 1-1.7 2.352 5.372 5.372 0 0 1-3.6.368L27.7 16.704c-.386-3.88-1.1-8.7-1.4-9.939v-.011a85.743 85.743 0 0 1-2.429 1.569 99.217 99.217 0 0 1-13.25 6.862l.076.532c-4.836 3.634-7.89 10.379-10.7 16.792"/>
                            </g>
                        </g>
                    </g>
                    <path data-name="Path 66211" d="m162.7 60.259 14.559-1.673 1.2-.776s2.376.828 2.541 2.081c.078.584-1.7 2.763-2.616 4.264.307 1.692.612 3.3.792 4.063.466 1.969 2.015 13.071 1.572 14.906s-2.455 1.412-2.541 3.267c-.083 1.8-9.492 2.885-9.981 1.147-.5-1.786-2.53-.628-2.992-2.708s-2.08-12.749-2.074-14.772c.005-2.023-.464-9.8-.464-9.8" transform="translate(-103.682 -36.84)" style="fill:#e6e6e6"/>
                    <path data-name="Path 66212" d="M288.565 34.723c-1.091-.956-1.566 3.42-1.566 3.42s.3-3.432-.536-4.362c-.663-.741-1.461 2.349-1.759 3.638l-.035-.009c.182-1.284.526-4.406-.333-4.907-.974-.568-1.634 3.766-1.753 4.544h-.014c.461-7.742-1.879-2.622-2.364 1.038-.528-.592-3.77-1.137-4.171-.858-.459.32 1.494 2.114 1.882 2.517a3.5 3.5 0 0 1 .682 3.645c-.164.535 7.689 1.2 7.689 1.2a19.006 19.006 0 0 0 1.663-4.03 2.147 2.147 0 0 0 .157-.467c.046-.212.112-.494.187-.815.354-1.536.886-4.013.271-4.551" transform="translate(-175.86 -20.679)" style="fill:#c1836b"/>
                    <g data-name="Group 61255" style="opacity:.1;mix-blend-mode:multiply;isolation:isolate">
                        <g data-name="Group 61254">
                            <g data-name="Group 61253" style="clip-path:url(#m7gcx5z0ue)" transform="translate(100.105 11.774)">
                                <path data-name="Path 66213" d="M8.738 4.964a22.178 22.178 0 0 1 .809-2.747c.253-.625.531-1.066.8-.994a29.263 29.263 0 0 0-1.6 3.741"/>
                                <path data-name="Path 66214" d="M.069 4.772a1.556 1.556 0 0 1 .747-.067 16 16 0 0 0 1.773 1.946 3.5 3.5 0 0 1 .682 3.644c-.145.473 5.976 1.049 7.395 1.177-.112.222-.223.445-.344.664 0 0-7.853-.668-7.688-1.2a3.5 3.5 0 0 0-.683-3.646c-.387-.4-2.34-2.2-1.882-2.517"/>
                                <path data-name="Path 66215" d="M4.396 4.699C4.808 2.635 5.653.492 6.187.554A18.708 18.708 0 0 0 4.24 5.63c-.09-.1 0 0 .156-.932"/>
                                <path data-name="Path 66216" d="M11.694 2.766c.174-.392.385-.654.634-.63-.451 1.024-1.294 3.553-1.294 3.553a11.4 11.4 0 0 1 .659-2.923"/>
                                <path data-name="Path 66217" d="M6.618 4.593a12.98 12.98 0 0 1 .666-3.158c.254-.822.571-1.464.937-1.434-.534 1.13-1.6 4.592-1.6 4.592"/>
                            </g>
                        </g>
                    </g>
                    <path data-name="Path 66218" d="M214.383 80.868a5.37 5.37 0 0 0 3.6-.368 5.235 5.235 0 0 0 1.7-2.352 118.264 118.264 0 0 0 6.8-18.677l9.433 2.069a168.343 168.343 0 0 1-11.181 28.765 4.685 4.685 0 0 1-1.05 1.538 4.76 4.76 0 0 1-2.522.84l-24.769 3.265-.54-17.495 18.532 2.414" transform="translate(-124.807 -37.898)" style="fill:#fff"/>
                    <path data-name="Path 66219" d="M205.875 484.369c-.928.3-27.4.057-28.4-.593-.386-.241-.574-4.1-.668-8.771v-.146l17.082-.032-.009.289s10.092 4.628 11.118 5.459 1.81 3.494.882 3.794" transform="translate(-112.67 -302.586)" style="fill:#111311"/>
                    <path data-name="Path 66220" d="M158.138 484.369c-.928.3-27.4.057-28.4-.593-.385-.241-.574-4.1-.668-8.771v-.146l17.081-.032-.009.289s10.091 4.628 11.118 5.459 1.81 3.494.882 3.794" transform="translate(-82.249 -302.586)" style="fill:#111311"/>
                    <path data-name="Path 66221" d="M127.166 192.376c1.177-11.459 4.543-78.9 13.832-87.541 2.12-1.974 6.816-.841 7.5.054 2.334 3.043 6.493 22.337 8.591 32.419 4 15.559 10.366 40.026 13.129 49.242 4.183 13.957-2.685 52.8-2.685 52.8l-44.511.4s2.156-28.061 4.14-47.377" transform="translate(-78.399 -66.111)" style="fill:#fff"/>
                    <path data-name="Path 66222" d="m137.418 241.4-14.392.172s2.155-28.061 4.14-47.376c1.177-11.459 4.543-78.9 13.832-87.542 1.417-1.319-4.681 20.735-4.7 21.266-2.125 70.67 7.1 78.819 1.116 113.477" transform="translate(-78.399 -67.928)" style="fill:#f2f2f2"/>
                    <path data-name="Path 66223" d="M112.7 282.16c1.146.89 1.361-3.507 1.361-3.507s-.092 3.444.794 4.323c.705.7 1.32-2.432 1.541-3.736l.036.008c-.106 1.292-.265 4.429.622 4.879 1.006.509 1.408-3.856 1.481-4.64h.014c0 7.755 2.031 2.507 2.3-1.176.562.56 3.831.912 4.214.61.439-.347-1.616-2.022-2.027-2.4a3.5 3.5 0 0 1-.9-3.6c.132-.543-7.746-.746-7.746-.746a18.988 18.988 0 0 0-1.422 4.12 2.149 2.149 0 0 0-.13.476c-.033.214-.083.5-.138.824-.262 1.555-.647 4.059 0 4.56" transform="translate(-71.596 -173.446)" style="fill:#c1836b"/>
                    <g data-name="Group 61258" style="opacity:.1;mix-blend-mode:multiply;isolation:isolate">
                        <g data-name="Group 61257">
                            <g data-name="Group 61256" style="clip-path:url(#9lqkjzaqwf)" transform="translate(41.388 98.73)">
                                <path data-name="Path 66224" d="M3.416 7.065a22.278 22.278 0 0 1-.645 2.791c-.215.639-.466 1.1-.735 1.039a29.347 29.347 0 0 0 1.38-3.829"/>
                                <path data-name="Path 66225" d="M12.081 6.745a1.556 1.556 0 0 1-.742.111 16.008 16.008 0 0 0-1.884-1.837 3.5 3.5 0 0 1-.9-3.6C8.672.938 2.528.725 1.104.682c.1-.229.2-.458.3-.683 0 0 7.878.2 7.746.746a3.5 3.5 0 0 0 .9 3.6c.411.379 2.466 2.054 2.027 2.4"/>
                                <path data-name="Path 66226" d="M7.77 7.074c-.289 2.084-1.006 4.274-1.543 4.243a18.711 18.711 0 0 0 1.644-5.182c.1.1 0 0-.1.939"/>
                                <path data-name="Path 66227" d="M.596 9.435c-.151.4-.345.675-.6.666.389-1.049 1.081-3.623 1.081-3.623a11.415 11.415 0 0 1-.486 2.957"/>
                                <path data-name="Path 66228" d="M5.555 7.311a12.974 12.974 0 0 1-.478 3.192c-.2.835-.483 1.5-.85 1.487.467-1.16 1.329-4.678 1.329-4.678"/>
                            </g>
                        </g>
                    </g>
                    <path data-name="Path 66229" d="M134.017 105.789c-7.085 3.138-11.478 12.777-15.045 20.877-5.522 12.532-8.585 26.34-7.917 39.925 0 0 9.833 2.447 14.84 3.509-1.752-16.789.621-39.681 6.242-55.154a55.183 55.183 0 0 1 3.6-8.156z" transform="translate(-70.713 -67.415)" style="fill:#fff"/>
                    <path data-name="Path 66230" d="M179.84 99.1c-1.434.455-3.787-2.161-4.985-4.167-.081-.139.079-1.627.188-3.445.062-1.1.105-2.333.064-3.459-.01-.23 7.121 1.453 7.121 1.453a17.958 17.958 0 0 0-.521 4.348 2.528 2.528 0 0 0 .066.46c0 .021.011.046.013.076.175.872-.414 4.248-1.946 4.736" transform="translate(-111.413 -56.083)" style="fill:#c1836b"/>
                    <path data-name="Path 66231" d="M170.261 56.513c-.414 2.586 1.886 9.571 3.871 10.925 2.878 1.963 7.1 1.606 8.639-1.74 1.5-3.244-1.662-12.295-3.834-13.475-3.2-1.738-8.064.472-8.676 4.29" transform="translate(-108.469 -32.896)" style="fill:#c1836b"/>
                    <path data-name="Path 66232" d="M176.826 77.167s1.612 2.994 3.073 2.718 1.447-1.468 2.909-1.571 2.268 1.016 3.1.957 1.144-1.136 1.144-1.136 2.677 6.568-3.762 7.022c-4.83.341-6.471-4.809-6.78-7.162-.1-.784.315-.826.315-.826" transform="translate(-112.472 -49.175)" style="fill:#111311"/>
                    <path data-name="Path 66233" d="M198.143 70.661c.751-.274 1.243 1.247.548 1.5s-1.177-1.271-.548-1.5" transform="translate(-126.083 -45.008)" style="fill:#111311"/>
                    <path data-name="Path 66234" d="M197.16 67.415c-.309.032-.6.039-.905.057a2.9 2.9 0 0 1-.917-.022c-.157-.041-.2-.166-.1-.247a2.056 2.056 0 0 1 1.076-.3 3.061 3.061 0 0 1 1.156.097c.34.1.1.371-.31.415" transform="translate(-124.384 -42.625)" style="fill:#111311"/>
                    <path data-name="Path 66235" d="M180 53.84c-.431-.531-.9-1.057-1.3-1.075s-.389.936-1.2 1.225c-1.1.389-1.927-.488-3.522-.159-2.292.473-2.6 3.417-1.763 6.623.748 2.862-1.054 2.82-1.054 2.82s-2.8-5.99-1.61-8.565a7 7 0 0 1 8.276-3.408c1.2.446 2.175 2.54 2.175 2.54" transform="translate(-107.858 -32.46)" style="fill:#111311"/>
                    <path data-name="Path 66236" d="M171.851 78.186a4.349 4.349 0 0 0-1.008-.971c-.489-.344-1.282-.84-1.855-.394-.531.412-.206 1.346 0 1.839a4.882 4.882 0 0 0 1.475 2.018 1.5 1.5 0 0 0 1.218.316c.846-.186.933-.951.729-1.67a3.558 3.558 0 0 0-.56-1.139" transform="translate(-107.504 -48.842)" style="fill:#eb996e"/>
                    <g data-name="Group 61261" style="opacity:.1;mix-blend-mode:multiply;isolation:isolate">
                        <g data-name="Group 61260">
                            <g data-name="Group 61259" style="clip-path:url(#jq2osx9e7g)" transform="translate(61.746 19.817)">
                                <path data-name="Path 66237" d="M1.948 12.129c0-.017.039-.022.107-.02A21.722 21.722 0 0 1 .011 4.88c0-.087-.008-.173-.01-.255v-.153c0-.08 0-.157.006-.233 0-.04 0-.081.006-.12a3.65 3.65 0 0 1 .136-.789q.034-.131.075-.258l.034-.106c.038-.111.079-.222.125-.329l.032-.071a4.895 4.895 0 0 1 .301-.582c.021-.035.041-.07.062-.1a6.11 6.11 0 0 1 .181-.272 5.884 5.884 0 0 1 .534-.648A34.406 34.406 0 0 1 7.018.422s1.043-.219 2.3-.417a10.2 10.2 0 0 1 1.573 2.536l2.145-1.383a5.215 5.215 0 0 1 2.388 1.64 1.981 1.981 0 0 0-1.124.008c-.545.145-.955 1.139-2.356 1.233a2.378 2.378 0 0 1-.429-.014 5.391 5.391 0 0 1-.77-.16 2.8 2.8 0 0 0-1.062-.125c-.805.092-2.14.763-2.993.9a9.916 9.916 0 0 1-3.033-.225c.108 1.746.222 3.654.243 4.23a14.427 14.427 0 0 1 .207 3.4c-.032.2-.069.408-.11.61a13.357 13.357 0 0 1-1.559 4.065c-.571 1.036.033 1.917-.186 3.167-.2-.289-.391-.576-.555-.852-.082-.139.079-1.627.188-3.445.062-1.1.106-2.333.064-3.459"/>
                            </g>
                        </g>
                    </g>
                    <path data-name="Path 66238" d="M162.206 72.884c-.114-2.209-.392-6.538-.716-10.045s.172-4.408.172-4.408l4.7-.608s.406 6.345.447 7.486a14.425 14.425 0 0 1 .207 3.4 13.231 13.231 0 0 1-1.669 4.675c-.988 1.792-1.386 3.114-1.413 6.695a20.1 20.1 0 0 0 .9 6.21c-1.112-.883-2.562-12.092-2.63-13.4" transform="translate(-102.841 -36.848)" style="fill:#fff"/>
                    <path data-name="Path 66239" d="m177.577 46.811-15.6 1.793a8.887 8.887 0 0 1 15.7-1.8l-.1.007" transform="translate(-103.222 -27.309)" style="fill:#fff"/>
                    <path data-name="Path 66240" d="M172.613 54.41c.526-.756 5.759-.871 5.759-.871s5.123-1.076 5.805-.458c.09.08 2.46 2.661 2.594 3.594a1.41 1.41 0 0 0-1.9-1.008c-.486.13-.852 1.016-2.1 1.1-.769.052-1.3-.35-2.017-.267s-1.908.681-2.669.805a14.106 14.106 0 0 1-3.828-.418c-1.633-.21-2.388.814-2.4 1.5a17.679 17.679 0 0 1 .757-3.979" transform="translate(-109.511 -33.704)" style="fill:#fff"/>
                    <path data-name="Path 66241" d="m162.554 51.6 14.51-1.667a.749.749 0 0 0 .655-.828V49.1a.749.749 0 0 0-.827-.655l-14.509 1.668a.749.749 0 0 0-.655.827v.009a.749.749 0 0 0 .827.655" transform="translate(-103.059 -30.869)" style="fill:#111311"/>
                    <path data-name="Path 66242" d="M161.833 54.926 177.2 53.16a.71.71 0 1 0-.132-1.413h-.03l-15.372 1.767a.71.71 0 0 0 .162 1.41" transform="translate(-102.634 -32.974)" style="fill:#111311"/>
                    <path data-name="Path 66243" d="M184.982 69.733c.3-.081.572-.179.863-.271a2.924 2.924 0 0 0 .848-.351c.132-.094.123-.226 0-.267a2.068 2.068 0 0 0-1.11.112 3.066 3.066 0 0 0-1.043.5c-.279.216.043.382.439.274" transform="translate(-117.533 -43.851)" style="fill:#111311"/>
                    <path data-name="Path 66244" d="M192.52 86.7a.755.755 0 0 0 .48.168 1.3 1.3 0 0 0 .479-.265.018.018 0 0 1 .025 0 .017.017 0 0 1 0 .017.67.67 0 0 1-.533.429.527.527 0 0 1-.493-.316c-.016-.026.018-.046.04-.035" transform="translate(-122.657 -55.188)" style="fill:#eb996e"/>
                    <path data-name="Rectangle 8624" transform="translate(62.844 36.963)" style="fill:#fff" d="M0 0h8.917v7.047H0z"/>
                    <path data-name="Path 66245" d="M187.761 73.29c.751-.274 1.243 1.247.548 1.5s-1.177-1.271-.548-1.5" transform="translate(-119.467 -46.684)" style="fill:#111311"/>
                    <path data-name="Path 66246" d="M200.621 402.852s4.232-37.044 3.6-42.653l-8.367 42.653z" transform="translate(-124.807 -229.539)" style="fill:#f2f2f2"/>
                    <path data-name="Rectangle 8625" transform="translate(67.303 36.963)" style="fill:#f2f2f2" d="M0 0h1.952v36.161H0z"/>
                    <path data-name="Path 66247" d="m204.7 97.761 21.318-3.273a4.763 4.763 0 0 0 2.522-.84 4.685 4.685 0 0 0 1.05-1.538 191.754 191.754 0 0 0 11.07-27.473l.891.2A168.376 168.376 0 0 1 230.369 93.6a4.684 4.684 0 0 1-1.05 1.538 4.763 4.763 0 0 1-2.522.84L206.158 98.7z" transform="translate(-130.445 -41.19)" style="fill:#f2f2f2"/>
                    <path data-name="Path 66248" d="M204.7 155.952s5.689 19.473 5.569 19.008-4.109-18.072-4.109-18.072z" transform="translate(-130.445 -99.381)" style="fill:#f2f2f2"/>
                    <path data-name="Path 66249" d="M118.972 124.186c3.567-8.1 7.255-17.39 14.34-20.527l.245-1.761h2.154c-.088.162-.142 2.738-.229 2.9-6.822 3.339-11.106 12.736-14.6 20.663-5.412 12.283-8.459 25.791-7.95 39.113-1.154-.283-1.881-.464-1.881-.464-.667-13.585 2.395-27.393 7.917-39.925" transform="translate(-70.713 -64.935)" style="fill:#f2f2f2"/>
                    <g data-name="Group 61264" style="opacity:.1">
                        <g data-name="Group 61263">
                            <g data-name="Group 61262" style="clip-path:url(#gflf3jx1bh)" transform="translate(63.603 107.019)">
                                <path data-name="Path 66250" d="M75.49 13.066a5 5 0 0 0-1.6-5.973A39.882 39.882 0 0 0 62.165.344a5.261 5.261 0 0 0-1.87-.337V0h-7.434v.007a4.422 4.422 0 0 0-2.25.609 8.518 8.518 0 0 0-1.852 1.615 11.875 11.875 0 0 1-4.32 3.06 10.142 10.142 0 0 1-4.568-3.293A5.224 5.224 0 0 0 35.718.023V0h-7.436v.025c-.079 0-.153-.013-.235-.014A13.266 13.266 0 0 0 26.42.43a38.2 38.2 0 0 0-8.26 4.236 21.842 21.842 0 0 0-3.006 2.283 4.8 4.8 0 0 0-1.135 5.5 10.3 10.3 0 0 1 .467 6.205 10.459 10.459 0 0 1-9.191 8.181 4.968 4.968 0 0 0-4.534 4.142 37.317 37.317 0 0 0-.472 12.072 12.892 12.892 0 0 0 .5 2.709c.765 2.143 2.441 3.081 4.639 3.384a10.074 10.074 0 0 1 7.833 5.46 10.444 10.444 0 0 1 .308 9.413 94.125 94.125 0 0 0 17.552 10.41 5.144 5.144 0 0 0 4.264 0c23.166-10.563 38.1-28.3 47.7-47.416a11.258 11.258 0 0 1-1.647-.508 10.568 10.568 0 0 1-5.944-13.439"/>
                            </g>
                        </g>
                    </g>
                    <g data-name="Group 61267" style="opacity:.1">
                        <g data-name="Group 61266">
                            <g data-name="Group 61265" style="clip-path:url(#c7yetypmri)" transform="translate(132.198 61.615)">
                                <path data-name="Path 66251" d="M29.424 1.467A3.9 3.9 0 0 0 26.211 0a9.839 9.839 0 0 0-1.2.309q-.81.3-1.6.643a3.994 3.994 0 0 0-2.716-.953 9.841 9.841 0 0 0-1.2.309 28.212 28.212 0 0 0-6.1 3.126 16.149 16.149 0 0 0-2.218 1.685 3.543 3.543 0 0 0-.838 4.061 7.6 7.6 0 0 1 .345 4.58 7.72 7.72 0 0 1-6.783 6.038 3.667 3.667 0 0 0-3.339 3.058 27.553 27.553 0 0 0-.348 8.91 9.528 9.528 0 0 0 .366 2 3.8 3.8 0 0 0 3.424 2.5 7.435 7.435 0 0 1 5.781 4.03 7.724 7.724 0 0 1 .2 7.021 3.572 3.572 0 0 0 1.036 4.253 29.713 29.713 0 0 0 8.685 5.011 3.691 3.691 0 0 0 1.171.231h.264c7.25-20.272 9.555-40.34 10.211-53.614a7.942 7.942 0 0 1-1.923-1.731"/>
                            </g>
                        </g>
                    </g>
                    <path data-name="Rectangle 8628" transform="translate(95.51 107.019)" style="fill:#447f5f" d="M0 0h7.436v5.341H0z"/>
                    <path data-name="Rectangle 8629" transform="translate(120.089 107.019)" style="fill:#447f5f" d="M0 0h7.436v5.341H0z"/>
                    <path data-name="Path 66252" d="M266.007 326.433a5.015 5.015 0 0 0-3.94-4.14 16.472 16.472 0 0 1-2.764-.761 10.568 10.568 0 0 1-5.944-13.439 5 5 0 0 0-1.6-5.973 39.885 39.885 0 0 0-11.725-6.749 4.651 4.651 0 0 0-4.086.272 8.517 8.517 0 0 0-1.852 1.615 10.454 10.454 0 0 1-11.366 3.2 10.052 10.052 0 0 1-4.992-3.438 5.278 5.278 0 0 0-4.354-1.987 13.254 13.254 0 0 0-1.627.419 38.193 38.193 0 0 0-8.26 4.236 21.838 21.838 0 0 0-3.006 2.283 4.8 4.8 0 0 0-1.135 5.5 10.3 10.3 0 0 1 .467 6.206 10.46 10.46 0 0 1-9.191 8.181 4.968 4.968 0 0 0-4.534 4.142 37.316 37.316 0 0 0-.472 12.072 12.9 12.9 0 0 0 .5 2.709c.765 2.142 2.441 3.081 4.639 3.384a10.074 10.074 0 0 1 7.833 5.46 10.468 10.468 0 0 1 .267 9.513 4.84 4.84 0 0 0 1.4 5.763 40.238 40.238 0 0 0 11.767 6.789 5 5 0 0 0 3.05.148 5.788 5.788 0 0 0 3.127-2.358 10.055 10.055 0 0 1 8.113-4.108 10.447 10.447 0 0 1 8.773 4.3 4.954 4.954 0 0 0 5.926 1.567 40.189 40.189 0 0 0 10.563-6.312 5.977 5.977 0 0 0 1.2-1.331 5.128 5.128 0 0 0 .292-4.911 9.823 9.823 0 0 1-.16-6.961 10.3 10.3 0 0 1 8.658-7.212 5.017 5.017 0 0 0 4.353-4.07c.316-1.889.554-3.8.681-5.709a35.19 35.19 0 0 0-.6-8.311" transform="translate(-118.108 -188.007)" style="fill:#447f5f"/>
                    <path data-name="Rectangle 8630" transform="translate(95.51 178.666)" style="fill:#447f5f" d="M0 0h7.436v5.341H0z"/>
                    <path data-name="Rectangle 8631" transform="translate(121.22 178.667)" style="fill:#447f5f" d="M0 0h7.436v4.973H0z"/>
                    <path data-name="Path 66253" d="M286.6 326.433a5.015 5.015 0 0 0-3.94-4.14 16.469 16.469 0 0 1-2.764-.761 10.568 10.568 0 0 1-5.944-13.439 5 5 0 0 0-1.6-5.973 39.886 39.886 0 0 0-11.725-6.749 4.651 4.651 0 0 0-4.086.272 8.517 8.517 0 0 0-1.852 1.615 10.454 10.454 0 0 1-11.366 3.2 10.052 10.052 0 0 1-4.992-3.438 5.278 5.278 0 0 0-4.354-1.987 13.257 13.257 0 0 0-1.627.419 38.193 38.193 0 0 0-8.26 4.236 21.837 21.837 0 0 0-3.006 2.283 4.8 4.8 0 0 0-1.135 5.5 10.3 10.3 0 0 1 .467 6.206 10.46 10.46 0 0 1-9.191 8.181 4.968 4.968 0 0 0-4.534 4.142 37.317 37.317 0 0 0-.472 12.072 12.9 12.9 0 0 0 .5 2.709c.765 2.142 2.441 3.081 4.64 3.384a10.074 10.074 0 0 1 7.833 5.46 10.469 10.469 0 0 1 .267 9.513 4.84 4.84 0 0 0 1.4 5.763 40.237 40.237 0 0 0 11.767 6.789 5 5 0 0 0 3.05.148 5.788 5.788 0 0 0 3.127-2.358 10.055 10.055 0 0 1 8.113-4.108 10.447 10.447 0 0 1 8.773 4.3 4.954 4.954 0 0 0 5.926 1.567 40.189 40.189 0 0 0 10.563-6.312 5.977 5.977 0 0 0 1.2-1.331 5.128 5.128 0 0 0 .292-4.911 9.823 9.823 0 0 1-.16-6.961 10.3 10.3 0 0 1 8.658-7.212 5.017 5.017 0 0 0 4.353-4.07c.316-1.889.554-3.8.681-5.709a35.19 35.19 0 0 0-.6-8.311" transform="translate(-131.231 -188.007)" style="fill:#549d78"/>
                    <g data-name="Group 61270" style="opacity:.1">
                        <g data-name="Group 61269">
                            <g data-name="Group 61268" style="clip-path:url(#b86zia4n7j)" transform="translate(134.789 140.868)">
                                <path data-name="Path 66254" d="M7.358 34.731a5.127 5.127 0 0 0 .292-4.911 9.823 9.823 0 0 1-.16-6.961 10.3 10.3 0 0 1 8.658-7.212 5.017 5.017 0 0 0 4.353-4.07c.316-1.888.554-3.8.681-5.709A30.51 30.51 0 0 0 20.945 0a72.807 72.807 0 0 0-.763 10.705.044.044 0 0 1-.046.045c-.91-.025-12.723-.074-16.047 2.117-3.7 2.441-.982 6.46-.982 6.46-1.208.326-5.969 3.174-.618 8.371a.069.069 0 0 1 0 .094c-.728.887-4.676 4.891 2.508 8.044a6.585 6.585 0 0 0-.67 1.65 39.408 39.408 0 0 0 1.831-1.424 5.97 5.97 0 0 0 1.2-1.331"/>
                            </g>
                        </g>
                    </g>
                    <path data-name="Path 66255" d="M303.984 382.914v9.61a7.387 7.387 0 0 0 .092.867 1.2 1.2 0 0 0 1.285 1.084c1.179.036 2.359.017 3.539.011.3 0 .372-.123.225-.394a5.386 5.386 0 0 1-.587-3.393 4.293 4.293 0 0 1 1.847-3.251 3.521 3.521 0 0 1 4.943 1.181 5.565 5.565 0 0 1 .635 4.063 9.073 9.073 0 0 1-.513 1.427c-.081.2-.1.361.16.361 1.265 0 2.532.012 3.795-.048a1.057 1.057 0 0 0 1.079-1.123c.052-1.307.078-2.617.054-3.924a.964.964 0 0 1 .6-1.034c.568-.276 1.094-.639 1.679-.99.014.138.031.229.031.32 0 1.839.026 3.68-.013 5.519a4.081 4.081 0 0 1-.853 2.535 3.173 3.173 0 0 1-2.61 1.2c-4.961.011-9.922-.077-14.882-.077a2.63 2.63 0 0 1-2.083-1.335 4.54 4.54 0 0 1-.69-2.561c0-2.792 0-5.584-.007-8.376a.512.512 0 0 1 .3-.514c.646-.364 1.279-.75 1.973-1.161m9.926 8.518a6.694 6.694 0 0 0-.2-1.072 1.418 1.418 0 0 0-1.189-1.016 1.34 1.34 0 0 0-1.5.71 3.018 3.018 0 0 0-.27 1.05 3.157 3.157 0 0 0 1.238 2.932.407.407 0 0 0 .579.02 3.253 3.253 0 0 0 1.343-2.625" transform="translate(-192.27 -244.014)" style="fill:#fff"/>
                    <path data-name="Path 66256" d="M275.837 404.206c.225-.5.429-.962.637-1.42a1.659 1.659 0 0 0 .158-.318c.121-.6.514-.7 1.053-.666.712.041 1.428.014 2.142.009a1.118 1.118 0 0 0 1.232-1.2 4.213 4.213 0 0 0-1.746-3.834c-.135-.1-.321-.183-.178-.437.327-.583.625-1.182.937-1.773a1.363 1.363 0 0 1 .134-.165c.312.245.633.462.913.723a6.847 6.847 0 0 1 1.785 2.589 7.735 7.735 0 0 1 .444 3.28 4.333 4.333 0 0 1-.589 2.161 2.034 2.034 0 0 1-1.636 1.035c-1.686.059-3.374.05-5.061.067a1.315 1.315 0 0 1-.226-.052" transform="translate(-175.779 -251.335)" style="fill:#fff"/>
                    <path data-name="Path 66257" d="M353.772 382.055c0-.843.419-1.331 1.147-1.34a1.106 1.106 0 0 1 1.141.9 2.6 2.6 0 0 1 .019.9 1.107 1.107 0 0 1-1.206.971 1.135 1.135 0 0 1-1.1-1.139c-.006-.1 0-.194 0-.291" transform="translate(-225.442 -242.613)" style="fill:#fff"/>
                    <path data-name="Path 66258" d="M286.885 382.145c0 .842-.166 1.1-.831 1.3a1.115 1.115 0 0 1-1.44-.906 3.521 3.521 0 0 1-.022-.8 1.1 1.1 0 0 1 1.238-1.007 1.086 1.086 0 0 1 1.055 1.19v.227" transform="translate(-181.349 -242.62)" style="fill:#fff"/>
                    <path data-name="Path 66259" d="M329.905 382.887c0 .108.007.217 0 .324a.972.972 0 0 1-.742.983 1.276 1.276 0 0 1-1.332-.353 1.718 1.718 0 0 1 .067-1.962 1.213 1.213 0 0 1 1.312-.288 1.093 1.093 0 0 1 .7 1.068v.227z" transform="translate(-208.736 -243.117)" style="fill:#fff"/>
                    <path data-name="Rectangle 8633" transform="translate(156.697 61.607)" style="fill:#447f5f" d="M0 0h5.488v3.942H0z"/>
                    <path data-name="Rectangle 8634" transform="translate(174.837 61.607)" style="fill:#447f5f" d="M0 0h5.488v3.942H0z"/>
                    <path data-name="Path 66260" d="M433.973 193.016a3.7 3.7 0 0 0-2.908-3.056 12.17 12.17 0 0 1-2.04-.562 7.8 7.8 0 0 1-4.387-9.918 3.687 3.687 0 0 0-1.181-4.408 29.429 29.429 0 0 0-8.653-4.981 3.432 3.432 0 0 0-3.015.2 6.29 6.29 0 0 0-1.367 1.192 7.717 7.717 0 0 1-8.388 2.365 7.419 7.419 0 0 1-3.684-2.537 3.9 3.9 0 0 0-3.213-1.467 9.841 9.841 0 0 0-1.2.309 28.2 28.2 0 0 0-6.1 3.127 16.116 16.116 0 0 0-2.218 1.685 3.543 3.543 0 0 0-.838 4.061 7.6 7.6 0 0 1 .345 4.58 7.72 7.72 0 0 1-6.783 6.038A3.667 3.667 0 0 0 375 192.7a27.552 27.552 0 0 0-.348 8.91 9.523 9.523 0 0 0 .366 2 3.8 3.8 0 0 0 3.424 2.5 7.435 7.435 0 0 1 5.781 4.03 7.726 7.726 0 0 1 .2 7.021 3.572 3.572 0 0 0 1.036 4.253 29.708 29.708 0 0 0 8.685 5.011 3.694 3.694 0 0 0 2.251.109 4.271 4.271 0 0 0 2.308-1.74 7.421 7.421 0 0 1 5.988-3.031 7.709 7.709 0 0 1 6.475 3.176 3.656 3.656 0 0 0 4.373 1.157 29.666 29.666 0 0 0 7.8-4.658 4.4 4.4 0 0 0 .886-.982 3.783 3.783 0 0 0 .215-3.625 7.25 7.25 0 0 1-.118-5.138 7.6 7.6 0 0 1 6.389-5.323 3.7 3.7 0 0 0 3.212-3c.234-1.394.409-2.8.5-4.213a25.953 25.953 0 0 0-.445-6.134" transform="translate(-238.613 -108.229)" style="fill:#447f5f"/>
                    <path data-name="Rectangle 8635" transform="translate(156.697 114.485)" style="fill:#447f5f" d="M0 0h5.488v3.942H0z"/>
                    <path data-name="Rectangle 8636" transform="translate(175.671 114.485)" style="fill:#447f5f" d="M0 0h5.488v3.67H0z"/>
                    <path data-name="Path 66261" d="M449.171 193.016a3.7 3.7 0 0 0-2.908-3.056 12.17 12.17 0 0 1-2.04-.562 7.8 7.8 0 0 1-4.387-9.918 3.687 3.687 0 0 0-1.181-4.408 29.428 29.428 0 0 0-8.655-4.981 3.431 3.431 0 0 0-3.015.2 6.285 6.285 0 0 0-1.367 1.192 7.716 7.716 0 0 1-8.388 2.365 7.419 7.419 0 0 1-3.684-2.537 3.9 3.9 0 0 0-3.213-1.467 9.836 9.836 0 0 0-1.2.309 28.186 28.186 0 0 0-6.1 3.127 16.073 16.073 0 0 0-2.218 1.685 3.543 3.543 0 0 0-.838 4.061 7.6 7.6 0 0 1 .344 4.58 7.72 7.72 0 0 1-6.783 6.038 3.667 3.667 0 0 0-3.338 3.056 27.543 27.543 0 0 0-.349 8.91 9.527 9.527 0 0 0 .366 2 3.8 3.8 0 0 0 3.424 2.5 7.435 7.435 0 0 1 5.781 4.03 7.726 7.726 0 0 1 .2 7.021 3.571 3.571 0 0 0 1.035 4.253 29.708 29.708 0 0 0 8.685 5.011 3.694 3.694 0 0 0 2.251.109 4.27 4.27 0 0 0 2.308-1.74 7.421 7.421 0 0 1 5.988-3.031 7.708 7.708 0 0 1 6.475 3.176 3.657 3.657 0 0 0 4.373 1.157 29.665 29.665 0 0 0 7.8-4.658 4.4 4.4 0 0 0 .886-.982 3.783 3.783 0 0 0 .215-3.625 7.25 7.25 0 0 1-.118-5.138 7.6 7.6 0 0 1 6.389-5.323 3.7 3.7 0 0 0 3.212-3c.234-1.394.409-2.8.5-4.213a25.955 25.955 0 0 0-.445-6.134" transform="translate(-248.298 -108.229)" style="fill:#549d78"/>
                    <path data-name="Path 66262" d="M489.645 240.546V222.8c0-.627.236-.87.865-.883.335-.007.67 0 1.035 0v17.807c0 .526-.192.767-.72.815-.381.035-.768.007-1.18.007" transform="translate(-312.029 -141.416)" style="fill:#fff"/>
                    <path data-name="Path 66263" d="M449.855 243.87v-7.766c0-.618.166-.816.784-.88a6.13 6.13 0 0 1 .909-.009c.064 0 .14.1.18.171.029.051.007.132.007.2 0 5.185-.008 10.371.008 15.556 0 .776-.358.905-.927.926-.236.009-.473-.009-.708.006-.2.013-.258-.068-.256-.262.006-1.467 0-2.934 0-4.4v-3.542" transform="translate(-286.671 -149.885)" style="fill:#fff"/>
                    <path data-name="Path 66264" d="M481.7 235.476v-7.769c0-.612.2-.842.811-.889a6.48 6.48 0 0 1 .884 0c.062 0 .134.107.171.179a.48.48 0 0 1 .007.2v15.537c0 .7-.222.928-.937.946-.227.006-.456-.01-.683.006-.207.015-.258-.072-.257-.265.007-1.1 0-2.21 0-3.315v-4.631" transform="translate(-306.965 -144.531)" style="fill:#fff"/>
                    <path data-name="Path 66265" d="M465.769 242.351v-6.276c0-.581.158-.774.742-.839a7.021 7.021 0 0 1 .985-.015c.057 0 .125.1.162.163.025.045.005.115.005.174v12.552c0 .659-.222.894-.887.925-.244.012-.49-.01-.733.009s-.279-.078-.279-.291c.007-2.134 0-4.268 0-6.4" transform="translate(-296.811 -149.89)" style="fill:#fff"/>
                    <path data-name="Path 66266" d="M473.737 242.34v-6.248c0-.607.164-.8.771-.867a6.312 6.312 0 0 1 .934-.01c.064 0 .135.1.178.173.026.043.005.115.005.174v12.571c0 .622-.211.854-.835.893-.269.017-.54 0-.809.009-.186.009-.25-.058-.248-.247.008-.742 0-1.484 0-2.226v-4.222" transform="translate(-301.889 -149.884)" style="fill:#fff"/>
                    <path data-name="Path 66267" d="M459.691 241.891c0 2.091-.007 4.182 0 6.273 0 .509-.112.789-.785.856a5.939 5.939 0 0 1-.909 0c-.063 0-.133-.105-.176-.176-.026-.044-.005-.115-.005-.174V236.1c0-.619.167-.819.782-.88a6.075 6.075 0 0 1 .909-.007.253.253 0 0 1 .17.176 5.909 5.909 0 0 1 .009.632v5.868" transform="translate(-291.744 -149.884)" style="fill:#fff"/>
                    <path data-name="Path 66268" d="M467.631 227.8a.972.972 0 0 1-1.945.013.972.972 0 1 1 1.945-.013" transform="translate(-296.761 -144.546)" style="fill:#fff"/>
                    <path data-name="Path 66269" d="M459.674 227.81a.945.945 0 0 1-.96.958.956.956 0 0 1-.977-.972.991.991 0 0 1 .966-.971.977.977 0 0 1 .971.985" transform="translate(-291.695 -144.545)" style="fill:#fff"/>
                    <path data-name="Path 66270" d="M475.613 227.808a.966.966 0 0 1-1.932-.008.966.966 0 1 1 1.932.008" transform="translate(-301.856 -144.546)" style="fill:#fff"/>
                    <path data-name="Path 66271" d="M482.461 277.521a.963.963 0 0 1-.013-1.927.964.964 0 1 1 .013 1.927" transform="translate(-306.837 -175.624)" style="fill:#fff"/>
                    <path data-name="Path 66272" d="M491.585 216.446h-1.865a1.808 1.808 0 0 1 1.854-1.835c0 .045.011 1.251.011 1.835" transform="translate(-312.07 -136.752)" style="fill:#fff"/>
                    <path data-name="Path 66273" d="M495.581 423.876s11.73-1.957 13.166-.445c1.587 1.67 3.458 15.68 1.608 24.436-1.041 4.931-2.841 5.206-5.427 4.9l-11.37-1.34z" transform="translate(-314.523 -269.468)" style="fill:#bfbfbf"/>
                    <path data-name="Path 66274" d="M425.468 389.613c-.91-.6-8.4-2.4-11.757-7.448-3.62-5.441-3.132-14.282-7.626-13.6-4.358.659-4.326 16.876-4.32 17.855a.044.044 0 0 1-.046.045c-.91-.025-12.723-.074-16.047 2.117-3.7 2.441-.982 6.46-.982 6.46-1.208.325-5.969 3.173-.618 8.371a.069.069 0 0 1 0 .094c-.728.887-4.676 4.891 2.508 8.044 0 0-2.972 4.831 2.3 6.531s31.345.286 33.325-1.275c4.8-3.782 7.218-24.6 3.267-27.193" transform="translate(-243.165 -234.846)" style="fill:#bfbfbf"/>
                    <path data-name="Rectangle 8637" transform="translate(163.364 133.681)" style="fill:#bfbfbf" d="M0 0h3.437v8.329H0z"/>
                    <path data-name="Path 66275" d="M505.015 423.876s11.73-1.957 13.166-.445c1.587 1.67 3.458 15.68 1.608 24.436-1.042 4.931-2.841 5.206-5.427 4.9l-11.37-1.34z" transform="translate(-320.534 -269.468)" style="fill:#ccc"/>
                    <path data-name="Path 66276" d="M434.9 389.613c-.91-.6-8.4-2.4-11.757-7.448-3.62-5.441-3.132-14.282-7.626-13.6-4.359.659-4.326 16.876-4.32 17.855a.044.044 0 0 1-.046.045c-.91-.025-12.723-.074-16.047 2.117-3.7 2.441-.982 6.46-.982 6.46-1.208.325-5.969 3.173-.618 8.371a.069.069 0 0 1 0 .094c-.728.887-4.676 4.891 2.508 8.044 0 0-2.972 4.831 2.3 6.531s31.345.286 33.325-1.275c4.8-3.782 7.217-24.6 3.267-27.193" transform="translate(-249.177 -234.846)" style="fill:#ccc"/>
                </g>
            </g>
        </g>
    </g>
</svg>
